<svg id="Layer_1" data-name="Layer 1" xmlns="http://www.w3.org/2000/svg" viewBox="0 0 175 175"><defs><style>.cls-1{fill:#f6a71c;}.cls-2{fill:#664b1e;}.cls-3{fill:#61af45;}.cls-4{fill:#b5d674;}.cls-5{fill:#ecf2c9;}</style></defs><title>KiweLogo</title><path class="cls-1" d="M175,15.38V166.74a8.26,8.26,0,0,1-8.26,8.26H15.31l-3.9-.5a15.31,15.31,0,0,1-11.14-12A14.91,14.91,0,0,1,0,159.68V10.22A10.21,10.21,0,0,1,10.22,0h149.4A15.21,15.21,0,0,1,162,.18h0a15.39,15.39,0,0,1,12.53,11.37A15.11,15.11,0,0,1,175,15.38Z"/><path class="cls-2" d="M174.52,11.55c-89.83.26-162.6,73-163.11,163a15.31,15.31,0,0,1-11.14-12C6.55,75.85,75.47,4.14,162,.18h0A15.39,15.39,0,0,1,174.52,11.55Z"/><path class="cls-3" d="M174.52,11.55c-89.83.26-162.6,73-163.11,163l3.9.5h2.82C18.38,88.42,88.52,18.28,175,18.28c0,0,0-2.71,0-3.61A14.78,14.78,0,0,0,174.52,11.55Z"/><path class="cls-4" d="M18.13,175h93.45A63.46,63.46,0,0,1,175,111.9V18.28C88.52,18.28,18.37,88.42,18.13,175Z"/><path class="cls-5" d="M111.58,175h56.33a7.1,7.1,0,0,0,7.09-7.1v-56A63.46,63.46,0,0,0,111.58,175Z"/><path class="cls-2" d="M84.24,166.46a10.76,10.76,0,0,1,4.56-21c5.8,1.26,15.45,8.29,14.19,14.1S90,167.72,84.24,166.46Z"/><path class="cls-2" d="M102.76,119.3a10.76,10.76,0,0,1,15-15.37c4.24,4.17,8.67,15.27,4.51,19.51S107,123.46,102.76,119.3Z"/><path class="cls-2" d="M143.53,89.3a10.75,10.75,0,1,1,20.91-5c1.37,5.79-.79,17.54-6.57,18.91S144.9,95.08,143.53,89.3Z"/></svg>