<svg id="Layer_1" data-name="Layer 1" xmlns="http://www.w3.org/2000/svg" viewBox="0 0 597.45 178.85"><defs><style>.cls-1{fill:#61af46;}.cls-2{fill:#674c1f;}.cls-3{fill:#b4d575;}.cls-4{fill:#ecf2c9;}</style></defs><title>KiweLogo-02</title><path class="cls-1" d="M148,132q-5.19,15.58-11.42,24.7T124.18,170.5a31.94,31.94,0,0,1-11.9,6,44.43,44.43,0,0,1-9.84,1.33q-15.47,0-23.32-7.31t-7.85-20.83a65.2,65.2,0,0,1,1.45-12.93l2-9.66a27.91,27.91,0,0,0,.79-4.71q.18-2.3.18-4.35a17.07,17.07,0,0,0-1.93-8.7q-1.94-3.25-7-3.26a17.63,17.63,0,0,0-8.64,2.48,68.81,68.81,0,0,0-9.6,6.7L35.64,176.36H0L35.88,8.09l36.6-4.95L54,90.24l47.71-37.57h24.52L76.71,87.09A32.09,32.09,0,0,1,84.92,86a29.26,29.26,0,0,1,12,2.29,23.78,23.78,0,0,1,8.52,6.28,26.19,26.19,0,0,1,5,9.24A37.46,37.46,0,0,1,112.1,115q0,2.3-.18,4.65a27.92,27.92,0,0,1-.79,4.77l-2.78,12.32a31.44,31.44,0,0,0-.9,4,26,26,0,0,0-.3,4,10.86,10.86,0,0,0,1.93,6.47q1.94,2.72,7.73,2.72a14.94,14.94,0,0,0,7-1.58,17.64,17.64,0,0,0,5.43-4.46,34.69,34.69,0,0,0,4.41-7q2-4,3.93-8.88Z"/><path class="cls-1" d="M214.05,132a100.71,100.71,0,0,1-7.79,17.4,71.91,71.91,0,0,1-8.94,12.44,48.91,48.91,0,0,1-9.54,8.21,48.28,48.28,0,0,1-9.48,4.83,44,44,0,0,1-8.76,2.3,52.83,52.83,0,0,1-7.43.6,31.19,31.19,0,0,1-10.39-1.69,21.57,21.57,0,0,1-8.39-5.31,25.49,25.49,0,0,1-5.62-9.18,38.82,38.82,0,0,1-2.06-13.41,63.57,63.57,0,0,1,.49-7.43q.48-4,1.45-8.76l16.79-79.36H190l-17.75,84.07a20.54,20.54,0,0,0-.79,4c-.12,1.33-.18,2.64-.18,3.92,0,3.47.8,5.86,2.42,7.19s4.15,2,7.61,2a16.28,16.28,0,0,0,7.06-1.64,22.29,22.29,0,0,0,6.34-4.53,31.85,31.85,0,0,0,5.2-6.94,43.51,43.51,0,0,0,3.74-8.76ZM198.71,19.81a19,19,0,0,1-5.86,13.83,20.64,20.64,0,0,1-6.28,4.11,20.23,20.23,0,0,1-15.34,0A19.89,19.89,0,0,1,165,33.64a18.75,18.75,0,0,1-4.17-6.16,19.37,19.37,0,0,1-1.51-7.67,19.4,19.4,0,0,1,1.51-7.67A20.27,20.27,0,0,1,165,5.86a19.88,19.88,0,0,1,6.22-4.29,19.52,19.52,0,0,1,15.34,0,20.55,20.55,0,0,1,10.57,10.57A18.76,18.76,0,0,1,198.71,19.81Z"/><path class="cls-1" d="M389.79,126.35a67.11,67.11,0,0,0,21.38-4.95,65.25,65.25,0,0,0,18.18-11.11A53.23,53.23,0,0,0,442,94.16a43.37,43.37,0,0,0,4.71-20,34,34,0,0,0-1.15-8.88,17.4,17.4,0,0,0-4.23-7.55A22,22,0,0,0,433,52.49a38.84,38.84,0,0,0-13.59-2A53.73,53.73,0,0,0,396.8,55a58.18,58.18,0,0,0-17.27,12A75.62,75.62,0,0,0,367,83.83a110,110,0,0,0-6.47,14.28c.45-2.37,1-4.74,1.3-7.09a155.48,155.48,0,0,0,1.69-21.8,39.56,39.56,0,0,0-.79-8,21.75,21.75,0,0,0-2.59-6.88,13.29,13.29,0,0,0-12.2-6.65q-8,0-11.66,3.81a13.24,13.24,0,0,0-3.69,9.6,18.75,18.75,0,0,0,.55,4.41,13.29,13.29,0,0,0,1.69,4,10,10,0,0,0,2.84,3,6.67,6.67,0,0,0,3.86,1.15c.49,0,1.13,0,1.94-.12a16.93,16.93,0,0,0,2.41-.43,12.57,12.57,0,0,0,2.24-.78,2.33,2.33,0,0,0,1.26-1.09,92.11,92.11,0,0,1-1.51,15.52,156.38,156.38,0,0,1-4.22,17.94,154,154,0,0,1-6.59,18,98.58,98.58,0,0,1-8.57,15.76,46.94,46.94,0,0,1-10.27,11.18,18.89,18.89,0,0,1-11.6,4.23q-4.47,0-6.46-2.24a8.64,8.64,0,0,1-2-6,44.57,44.57,0,0,1,1.33-8.94l17.75-84.07H281.58L264.79,132a68.53,68.53,0,0,1-3.33,8.76,30,30,0,0,1-4.34,6.94,19.11,19.11,0,0,1-5.5,4.53A13.72,13.72,0,0,1,245,153.9a6.47,6.47,0,0,1-3.57-.91,6.75,6.75,0,0,1-2.23-2.42,11.2,11.2,0,0,1-1.21-3.44,22.46,22.46,0,0,1-.36-4.11,28.08,28.08,0,0,1,.72-6.28l17.76-84.07H220.45L203.66,132c-.64,3.14-1.13,6.06-1.45,8.76a63.43,63.43,0,0,0-.48,7.43,38.83,38.83,0,0,0,2.05,13.41,25.77,25.77,0,0,0,5.62,9.18,21.67,21.67,0,0,0,8.4,5.31,31.14,31.14,0,0,0,10.39,1.69,48.07,48.07,0,0,0,7.91-.72,32.06,32.06,0,0,0,8.82-3,44.63,44.63,0,0,0,9.24-6.28A51.84,51.84,0,0,0,263.34,157q2.18,10.5,9.84,15.64t19.75,5.13a48.2,48.2,0,0,0,22.71-5.31,63.68,63.68,0,0,0,18-14.07,89.35,89.35,0,0,0,13.47-20.06,151.21,151.21,0,0,0,7.09-17.07c0,.27-.12.55-.16.83a107.63,107.63,0,0,0-1.45,16.42,51.15,51.15,0,0,0,2.78,17.94,31.38,31.38,0,0,0,7.79,12.14,31,31,0,0,0,12.08,7A52.09,52.09,0,0,0,391,177.81a59.93,59.93,0,0,0,14.38-1.69,34.56,34.56,0,0,0,12.56-5.92A36.91,36.91,0,0,0,427.72,159a53.74,53.74,0,0,0,6-17.76,49.36,49.36,0,0,1-6.52,5,65,65,0,0,1-7.43,4.17,46.75,46.75,0,0,1-7.73,2.9,28,28,0,0,1-7.55,1.09,18.17,18.17,0,0,1-6-1,11.22,11.22,0,0,1-4.83-3.32,17,17,0,0,1-3.26-6.34,34.5,34.5,0,0,1-1.21-9.91c0-1.12.06-2.31.18-3.56S389.63,127.72,389.79,126.35Zm6.83-29.71a118.92,118.92,0,0,1,7.13-16.43,52.33,52.33,0,0,1,8.45-12q4.53-4.65,9.24-4.65a4.87,4.87,0,0,1,4.83,2.78,17.17,17.17,0,0,1,1.33,7.37,39.1,39.1,0,0,1-3,15,44.12,44.12,0,0,1-8,12.87,42.93,42.93,0,0,1-11.54,9.18,30.16,30.16,0,0,1-13.65,3.81A151.29,151.29,0,0,1,396.62,96.64Z"/><path class="cls-2" d="M593.06,112.6h4.39a66.25,66.25,0,0,1-66.09,66.25v-4.39A61.85,61.85,0,0,0,593.06,112.6Z"/><path class="cls-1" d="M531.36,174.46v-2.54a59.33,59.33,0,0,0,59.16-59.32h2.54A61.85,61.85,0,0,1,531.36,174.46Z"/><path class="cls-3" d="M531.36,171.92V136.58a24,24,0,0,0,23.82-24h35.34A59.33,59.33,0,0,1,531.36,171.92Z"/><path class="cls-4" d="M531.36,136.58v-24h23.82A24,24,0,0,1,531.36,136.58Z"/><path class="cls-2" d="M531.36,174.46v4.39a66.25,66.25,0,0,1-66.25-66.09h4.39A61.86,61.86,0,0,0,531.36,174.46Z"/><path class="cls-1" d="M469.5,112.76H472a59.33,59.33,0,0,0,59.32,59.16v2.54A61.86,61.86,0,0,1,469.5,112.76Z"/><path class="cls-3" d="M472,112.76h35.34a24,24,0,0,0,24,23.82v35.34A59.33,59.33,0,0,1,472,112.76Z"/><path class="cls-4" d="M507.38,112.76h24v23.82A24,24,0,0,1,507.38,112.76Z"/><path class="cls-2" d="M593.06,112.93h4.39a66.25,66.25,0,0,0-66.09-66.25v4.38A61.87,61.87,0,0,1,593.06,112.93Z"/><path class="cls-1" d="M531.36,51.06v2.55a59.33,59.33,0,0,1,59.16,59.32h2.54A61.87,61.87,0,0,0,531.36,51.06Z"/><path class="cls-3" d="M531.36,53.61V88.94a24,24,0,0,1,23.82,24h35.34A59.33,59.33,0,0,0,531.36,53.61Z"/><path class="cls-4" d="M531.36,88.94v24h23.82A24,24,0,0,0,531.36,88.94Z"/><path class="cls-2" d="M531.36,51.06V46.68a66.25,66.25,0,0,0-66.25,66.08h4.39A61.86,61.86,0,0,1,531.36,51.06Z"/><path class="cls-1" d="M469.5,112.76H472a59.32,59.32,0,0,1,59.32-59.15V51.06A61.86,61.86,0,0,0,469.5,112.76Z"/><path class="cls-3" d="M472,112.76h35.34a24,24,0,0,1,24-23.82V53.61A59.32,59.32,0,0,0,472,112.76Z"/><path class="cls-4" d="M507.38,112.76h24V88.94A24,24,0,0,0,507.38,112.76Z"/><path class="cls-2" d="M504.05,91.74a4.06,4.06,0,1,1,5.69-5.8c1.6,1.57,3.27,5.76,1.7,7.36S505.65,93.31,504.05,91.74Z"/><path class="cls-2" d="M526.91,78.58A4.07,4.07,0,0,1,535,78.5c0,2.25-1.76,6.39-4,6.42S526.94,80.83,526.91,78.58Z"/><path class="cls-2" d="M552.39,85.45a4.06,4.06,0,1,1,5.8,5.69c-1.57,1.6-5.76,3.28-7.37,1.7S550.82,87.05,552.39,85.45Z"/><path class="cls-2" d="M565.54,108.32a4.06,4.06,0,1,1,.08,8.12c-2.24,0-6.39-1.76-6.41-4S563.3,108.34,565.54,108.32Z"/><path class="cls-2" d="M558.68,133.79a4.06,4.06,0,0,1-5.69,5.8c-1.61-1.57-3.28-5.76-1.71-7.36S557.08,132.22,558.68,133.79Z"/><path class="cls-2" d="M535.81,147a4.07,4.07,0,1,1-8.13.07c0-2.24,1.76-6.39,4-6.41S535.79,144.7,535.81,147Z"/><path class="cls-2" d="M510.34,140.08a4.06,4.06,0,0,1-5.8-5.69c1.57-1.6,5.76-3.28,7.36-1.71S511.91,138.48,510.34,140.08Z"/><path class="cls-2" d="M497.18,117.21a4.06,4.06,0,1,1-.08-8.12c2.25,0,6.39,1.75,6.41,4S499.42,117.19,497.18,117.21Z"/><path class="cls-2" d="M504.05,91.74a4.06,4.06,0,1,1,5.69-5.8c1.6,1.57,3.27,5.76,1.7,7.36S505.65,93.31,504.05,91.74Z"/></svg>